<svg width="56" height="56" viewBox="0 0 56 56" fill="none" xmlns="http://www.w3.org/2000/svg">
<rect x="4" y="4" width="48" height="48" rx="24" fill="#FDF4EE"/>
<path fill-rule="evenodd" clip-rule="evenodd" d="M19.75 28C19.75 25.812 20.6192 23.7135 22.1664 22.1664C23.7135 20.6192 25.812 19.75 28 19.75C30.188 19.75 32.2865 20.6192 33.8336 22.1664C35.3808 23.7135 36.25 25.812 36.25 28C36.25 30.188 35.3808 32.2865 33.8336 33.8336C32.2865 35.3808 30.188 36.25 28 36.25C25.812 36.25 23.7135 35.3808 22.1664 33.8336C20.6192 32.2865 19.75 30.188 19.75 28ZM28 18.25C22.615 18.25 18.25 22.615 18.25 28C18.25 33.385 22.615 37.75 28 37.75C33.385 37.75 37.75 33.385 37.75 28C37.75 22.615 33.385 18.25 28 18.25ZM28.75 22C28.75 21.8011 28.671 21.6103 28.5303 21.4697C28.3897 21.329 28.1989 21.25 28 21.25C27.8011 21.25 27.6103 21.329 27.4697 21.4697C27.329 21.6103 27.25 21.8011 27.25 22V28C27.25 28.199 27.329 28.39 27.47 28.53L29.97 31.03C30.0387 31.1037 30.1215 31.1628 30.2135 31.2038C30.3055 31.2448 30.4048 31.2668 30.5055 31.2686C30.6062 31.2704 30.7062 31.2518 30.7996 31.2141C30.893 31.1764 30.9778 31.1203 31.049 31.049C31.1203 30.9778 31.1764 30.893 31.2141 30.7996C31.2518 30.7062 31.2704 30.6062 31.2686 30.5055C31.2668 30.4048 31.2448 30.3055 31.2038 30.2135C31.1628 30.1215 31.1037 30.0387 31.03 29.97L28.75 27.69V22Z" fill="#FD682A"/>
<rect x="4" y="4" width="48" height="48" rx="24" stroke="#FFF9F5" stroke-width="8"/>
</svg>
