<svg width="56" height="56" viewBox="0 0 56 56" fill="none" xmlns="http://www.w3.org/2000/svg">
<rect x="4" y="4" width="48" height="48" rx="24" fill="#FDF4EE"/>
<path fill-rule="evenodd" clip-rule="evenodd" d="M28 19.75C26.2894 19.75 24.6211 20.2817 23.226 21.2716C21.8309 22.2614 20.7779 23.6605 20.2129 25.2751C19.6479 26.8897 19.5988 28.64 20.0723 30.2837C20.5458 31.9275 21.5186 33.3834 22.856 34.45C23.098 33.2643 23.7421 32.1985 24.6795 31.4331C25.6168 30.6677 26.7898 30.2496 28 30.2496C29.2102 30.2496 30.3832 30.6677 31.3205 31.4331C32.2579 32.1985 32.902 33.2643 33.144 34.45C34.4814 33.3834 35.4542 31.9275 35.9277 30.2837C36.4012 28.64 36.3521 26.8897 35.7871 25.2751C35.2221 23.6605 34.1691 22.2614 32.774 21.2716C31.3789 20.2817 29.7106 19.75 28 19.75ZM31.747 35.352C31.7083 34.3842 31.2965 33.4689 30.5981 32.7978C29.8996 32.1268 28.9686 31.752 28 31.752C27.0314 31.752 26.1004 32.1268 25.4019 32.7978C24.7035 33.4689 24.2917 34.3842 24.253 35.352C25.4131 35.9442 26.6975 36.252 28 36.25C29.35 36.25 30.623 35.926 31.747 35.352ZM18.25 28C18.25 22.615 22.615 18.25 28 18.25C33.385 18.25 37.75 22.615 37.75 28C37.75 33.385 33.385 37.75 28 37.75C22.615 37.75 18.25 33.385 18.25 28ZM28 23.25C27.4033 23.25 26.831 23.4871 26.409 23.909C25.9871 24.331 25.75 24.9033 25.75 25.5C25.75 26.0967 25.9871 26.669 26.409 27.091C26.831 27.5129 27.4033 27.75 28 27.75C28.5967 27.75 29.169 27.5129 29.591 27.091C30.0129 26.669 30.25 26.0967 30.25 25.5C30.25 24.9033 30.0129 24.331 29.591 23.909C29.169 23.4871 28.5967 23.25 28 23.25ZM24.25 25.5C24.25 24.5054 24.6451 23.5516 25.3483 22.8483C26.0516 22.1451 27.0054 21.75 28 21.75C28.9946 21.75 29.9484 22.1451 30.6517 22.8483C31.3549 23.5516 31.75 24.5054 31.75 25.5C31.75 26.4946 31.3549 27.4484 30.6517 28.1517C29.9484 28.8549 28.9946 29.25 28 29.25C27.0054 29.25 26.0516 28.8549 25.3483 28.1517C24.6451 27.4484 24.25 26.4946 24.25 25.5Z" fill="#FD682A"/>
<rect x="4" y="4" width="48" height="48" rx="24" stroke="#FFF9F5" stroke-width="8"/>
</svg>
