<svg width="57" height="56" viewBox="0 0 57 56" fill="none" xmlns="http://www.w3.org/2000/svg">
<rect x="4.66675" y="4" width="48" height="48" rx="24" fill="#FDF4EE"/>
<path fill-rule="evenodd" clip-rule="evenodd" d="M30.737 19.177C30.4088 18.8491 29.9639 18.6649 29.5 18.6649C29.0361 18.6649 28.5912 18.8491 28.263 19.177L26.689 20.75H20C19.8011 20.75 19.6103 20.829 19.4697 20.9697C19.329 21.1103 19.25 21.3011 19.25 21.5V30.5C19.25 30.699 19.329 30.89 19.47 31.03L24.97 36.53C25.583 37.144 26.289 37.461 26.991 37.484C27.4997 37.5021 28.001 37.3587 28.4232 37.0743C28.8454 36.79 29.1667 36.3792 29.341 35.901L29.47 36.031C30.083 36.644 30.789 36.961 31.491 36.984C32.0058 37.002 32.5128 36.8547 32.9377 36.5635C33.3626 36.2723 33.683 35.8526 33.852 35.366C34.369 35.76 34.931 35.966 35.492 35.984C35.8224 35.9955 36.1517 35.9388 36.4593 35.8176C36.7669 35.6963 37.0462 35.5131 37.2799 35.2792C37.5137 35.0454 37.6968 34.766 37.8179 34.4583C37.9391 34.1507 37.9956 33.8214 37.984 33.491C37.961 32.789 37.644 32.083 37.03 31.47L36.81 31.25H38C38.1989 31.25 38.3897 31.171 38.5303 31.0303C38.671 30.8897 38.75 30.6989 38.75 30.5V21.5C38.75 21.3011 38.671 21.1103 38.5303 20.9697C38.3897 20.829 38.1989 20.75 38 20.75H32.31L30.737 19.177ZM35.311 29.75H37.25V22.25H32C31.8012 22.2498 31.6105 22.1707 31.47 22.03L29.677 20.237C29.6538 20.2137 29.6262 20.1953 29.5958 20.1827C29.5654 20.1701 29.5329 20.1636 29.5 20.1636C29.4671 20.1636 29.4346 20.1701 29.4042 20.1827C29.3738 20.1953 29.3462 20.2137 29.323 20.237L27.531 22.03L24.56 25L25.115 25.555C25.2311 25.6711 25.3689 25.7632 25.5206 25.8261C25.6722 25.8889 25.8348 25.9212 25.999 25.9212C26.1632 25.9212 26.3258 25.8889 26.4774 25.8261C26.6291 25.7632 26.7669 25.6711 26.883 25.555L28.47 23.97C28.6106 23.8296 28.8012 23.7507 29 23.7507C29.1988 23.7507 29.3894 23.8296 29.53 23.97L35.31 29.75H35.311ZM27.985 35.04C27.976 34.774 27.856 34.417 27.47 34.03L25.97 32.53C25.8963 32.4614 25.8372 32.3786 25.7962 32.2866C25.7552 32.1946 25.7332 32.0952 25.7314 31.9945C25.7296 31.8938 25.7482 31.7938 25.7859 31.7004C25.8236 31.607 25.8797 31.5222 25.951 31.451C26.0222 31.3798 26.107 31.3236 26.2004 31.2859C26.2938 31.2482 26.3938 31.2296 26.4945 31.2314C26.5952 31.2332 26.6945 31.2552 26.7865 31.2962C26.8785 31.3372 26.9613 31.3963 27.03 31.47L28.53 32.97L30.53 34.97C30.917 35.356 31.274 35.476 31.54 35.485C31.6654 35.4899 31.7905 35.4689 31.9074 35.4231C32.0243 35.3774 32.1304 35.3079 32.2192 35.2192C32.3079 35.1304 32.3774 35.0243 32.4231 34.9074C32.4689 34.7905 32.4899 34.6654 32.485 34.54C32.476 34.274 32.356 33.917 31.97 33.53L28.47 30.03C28.3963 29.9614 28.3372 29.8785 28.2962 29.7866C28.2552 29.6946 28.2332 29.5952 28.2314 29.4945C28.2296 29.3938 28.2482 29.2938 28.2859 29.2004C28.3236 29.107 28.3797 29.0222 28.451 28.951C28.5222 28.8798 28.607 28.8236 28.7004 28.7859C28.7938 28.7482 28.8938 28.7296 28.9945 28.7314C29.0952 28.7332 29.1945 28.7552 29.2865 28.7962C29.3785 28.8372 29.4613 28.8963 29.53 28.97L33.03 32.47L34.53 33.97C34.917 34.356 35.274 34.476 35.54 34.485C35.6654 34.4899 35.7905 34.4689 35.9074 34.4231C36.0243 34.3774 36.1304 34.3079 36.2192 34.2192C36.3079 34.1304 36.3774 34.0243 36.4231 33.9074C36.4688 33.7905 36.4899 33.6654 36.485 33.54C36.476 33.274 36.356 32.917 35.97 32.53L29 25.56L27.944 26.616C27.4283 27.1317 26.7288 27.4214 25.9995 27.4214C25.2702 27.4214 24.5707 27.1317 24.055 26.616L22.97 25.53C22.8295 25.3894 22.7507 25.1988 22.7507 25C22.7507 24.8013 22.8295 24.6106 22.97 24.47L25.19 22.25H20.75V30.19L26.03 35.47C26.417 35.856 26.774 35.976 27.04 35.985C27.1654 35.9899 27.2905 35.9689 27.4074 35.9231C27.5243 35.8774 27.6304 35.8079 27.7192 35.7192C27.8079 35.6304 27.8774 35.5243 27.9231 35.4074C27.9689 35.2905 27.9899 35.1654 27.985 35.04Z" fill="#FD682A"/>
<rect x="4.66675" y="4" width="48" height="48" rx="24" stroke="#FFF9F5" stroke-width="8"/>
</svg>
