<svg width="56" height="56" viewBox="0 0 56 56" fill="none" xmlns="http://www.w3.org/2000/svg">
<rect x="4" y="4" width="48" height="48" rx="24" fill="#FDF4EE"/>
<path fill-rule="evenodd" clip-rule="evenodd" d="M23.75 21.778C23.75 21.164 24.205 20.75 24.667 20.75H31.333C31.795 20.75 32.25 21.164 32.25 21.778V34.222C32.25 34.836 31.795 35.25 31.333 35.25H24.667C24.205 35.25 23.75 34.836 23.75 34.222V21.778ZM24.667 19.25C23.287 19.25 22.25 20.428 22.25 21.778V34.222C22.25 35.572 23.287 36.75 24.667 36.75H31.333C32.713 36.75 33.75 35.572 33.75 34.222V21.778C33.75 20.428 32.713 19.25 31.333 19.25H24.667ZM28 32.75C27.8011 32.75 27.6103 32.829 27.4697 32.9697C27.329 33.1103 27.25 33.3011 27.25 33.5C27.25 33.6989 27.329 33.8897 27.4697 34.0303C27.6103 34.171 27.8011 34.25 28 34.25H28.01C28.2089 34.25 28.3997 34.171 28.5403 34.0303C28.681 33.8897 28.76 33.6989 28.76 33.5C28.76 33.3011 28.681 33.1103 28.5403 32.9697C28.3997 32.829 28.2089 32.75 28.01 32.75H28Z" fill="#FD682A"/>
<rect x="4" y="4" width="48" height="48" rx="24" stroke="#FFF9F5" stroke-width="8"/>
</svg>
