<svg width="56" height="56" viewBox="0 0 56 56" fill="none" xmlns="http://www.w3.org/2000/svg">
<rect x="4" y="4" width="48" height="48" rx="24" fill="#FDF4EE"/>
<path fill-rule="evenodd" clip-rule="evenodd" d="M25.75 19C25.75 18.8011 25.671 18.6103 25.5303 18.4697C25.3897 18.329 25.1989 18.25 25 18.25C24.8011 18.25 24.6103 18.329 24.4697 18.4697C24.329 18.6103 24.25 18.8011 24.25 19V20.25H20.5C19.81 20.25 19.25 20.81 19.25 21.5V34.5C19.25 35.19 19.81 35.75 20.5 35.75H35.5C36.19 35.75 36.75 35.19 36.75 34.5V21.5C36.75 20.81 36.19 20.25 35.5 20.25H31.75V19C31.75 18.8011 31.671 18.6103 31.5303 18.4697C31.3897 18.329 31.1989 18.25 31 18.25C30.8011 18.25 30.6103 18.329 30.4697 18.4697C30.329 18.6103 30.25 18.8011 30.25 19V20.25H25.75V19ZM20.75 21.75H24.25V23C24.25 23.1989 24.329 23.3897 24.4697 23.5303C24.6103 23.671 24.8011 23.75 25 23.75C25.1989 23.75 25.3897 23.671 25.5303 23.5303C25.671 23.3897 25.75 23.1989 25.75 23V21.75H30.25V23C30.25 23.1989 30.329 23.3897 30.4697 23.5303C30.6103 23.671 30.8011 23.75 31 23.75C31.1989 23.75 31.3897 23.671 31.5303 23.5303C31.671 23.3897 31.75 23.1989 31.75 23V21.75H35.25V25.25H20.75V21.75ZM20.75 26.75V34.25H35.25V26.75H20.75ZM22.75 29C22.75 28.8011 22.829 28.6103 22.9697 28.4697C23.1103 28.329 23.3011 28.25 23.5 28.25H24.5C24.6989 28.25 24.8897 28.329 25.0303 28.4697C25.171 28.6103 25.25 28.8011 25.25 29C25.25 29.1989 25.171 29.3897 25.0303 29.5303C24.8897 29.671 24.6989 29.75 24.5 29.75H23.5C23.3011 29.75 23.1103 29.671 22.9697 29.5303C22.829 29.3897 22.75 29.1989 22.75 29ZM27.5 28.25C27.3011 28.25 27.1103 28.329 26.9697 28.4697C26.829 28.6103 26.75 28.8011 26.75 29C26.75 29.1989 26.829 29.3897 26.9697 29.5303C27.1103 29.671 27.3011 29.75 27.5 29.75H28.5C28.6989 29.75 28.8897 29.671 29.0303 29.5303C29.171 29.3897 29.25 29.1989 29.25 29C29.25 28.8011 29.171 28.6103 29.0303 28.4697C28.8897 28.329 28.6989 28.25 28.5 28.25H27.5ZM30.75 29C30.75 28.8011 30.829 28.6103 30.9697 28.4697C31.1103 28.329 31.3011 28.25 31.5 28.25H32.5C32.6989 28.25 32.8897 28.329 33.0303 28.4697C33.171 28.6103 33.25 28.8011 33.25 29C33.25 29.1989 33.171 29.3897 33.0303 29.5303C32.8897 29.671 32.6989 29.75 32.5 29.75H31.5C31.3011 29.75 31.1103 29.671 30.9697 29.5303C30.829 29.3897 30.75 29.1989 30.75 29ZM27.5 31.25C27.3011 31.25 27.1103 31.329 26.9697 31.4697C26.829 31.6103 26.75 31.8011 26.75 32C26.75 32.1989 26.829 32.3897 26.9697 32.5303C27.1103 32.671 27.3011 32.75 27.5 32.75H28.5C28.6989 32.75 28.8897 32.671 29.0303 32.5303C29.171 32.3897 29.25 32.1989 29.25 32C29.25 31.8011 29.171 31.6103 29.0303 31.4697C28.8897 31.329 28.6989 31.25 28.5 31.25H27.5ZM30.75 32C30.75 31.8011 30.829 31.6103 30.9697 31.4697C31.1103 31.329 31.3011 31.25 31.5 31.25H32.5C32.6989 31.25 32.8897 31.329 33.0303 31.4697C33.171 31.6103 33.25 31.8011 33.25 32C33.25 32.1989 33.171 32.3897 33.0303 32.5303C32.8897 32.671 32.6989 32.75 32.5 32.75H31.5C31.3011 32.75 31.1103 32.671 30.9697 32.5303C30.829 32.3897 30.75 32.1989 30.75 32ZM23.5 31.25C23.3011 31.25 23.1103 31.329 22.9697 31.4697C22.829 31.6103 22.75 31.8011 22.75 32C22.75 32.1989 22.829 32.3897 22.9697 32.5303C23.1103 32.671 23.3011 32.75 23.5 32.75H24.5C24.6989 32.75 24.8897 32.671 25.0303 32.5303C25.171 32.3897 25.25 32.1989 25.25 32C25.25 31.8011 25.171 31.6103 25.0303 31.4697C24.8897 31.329 24.6989 31.25 24.5 31.25H23.5Z" fill="#FD682A"/>
<rect x="4" y="4" width="48" height="48" rx="24" stroke="#FFF9F5" stroke-width="8"/>
</svg>
