<svg width="252" height="87" viewBox="0 0 252 87" fill="none" xmlns="http://www.w3.org/2000/svg">
<g opacity="0.95" filter="url(#filter0_dd_599_72781)">
<rect x="13.9855" y="3" width="224.029" height="59" rx="10.0541" fill="white"/>
</g>
<path d="M39.8812 25.1651C40.2083 24.114 41.6324 24.114 41.9594 25.1651L43.128 28.9206C43.2743 29.3906 43.6938 29.7089 44.1671 29.7089H47.9488C49.0072 29.7089 49.4473 31.1231 48.591 31.7727L45.5316 34.0937C45.1486 34.3842 44.9884 34.8991 45.1347 35.3692L46.3033 39.1246C46.6303 40.1757 45.4782 41.0497 44.622 40.4001L41.5625 38.0791C41.1796 37.7886 40.661 37.7886 40.2781 38.0791L37.2187 40.4001C36.3624 41.0497 35.2103 40.1757 35.5373 39.1246L36.7059 35.3692C36.8522 34.8991 36.692 34.3842 36.309 34.0937L33.2496 31.7727C32.3933 31.1231 32.8334 29.7089 33.8918 29.7089H37.6735C38.1468 29.7089 38.5663 29.3906 38.7126 28.9206L39.8812 25.1651Z" fill="#FFC3AA"/>
<path d="M63.3483 25.1651C63.6754 24.114 65.0995 24.114 65.4265 25.1651L66.5951 28.9206C66.7414 29.3906 67.1609 29.7089 67.6342 29.7089H71.4159C72.4743 29.7089 72.9144 31.1231 72.0581 31.7727L68.9987 34.0937C68.6157 34.3842 68.4555 34.8991 68.6018 35.3692L69.7704 39.1246C70.0974 40.1757 68.9453 41.0497 68.0891 40.4001L65.0296 38.0791C64.6467 37.7886 64.1281 37.7886 63.7452 38.0791L60.6858 40.4001C59.8295 41.0497 58.6774 40.1757 59.0044 39.1246L60.173 35.3692C60.3193 34.8991 60.1591 34.3842 59.7761 34.0937L56.7167 31.7727C55.8604 31.1231 56.3005 29.7089 57.3589 29.7089H61.1406C61.6139 29.7089 62.0334 29.3906 62.1797 28.9206L63.3483 25.1651Z" fill="#FFC3AA"/>
<path d="M86.8152 25.1651C87.1422 24.114 88.5663 24.114 88.8934 25.1651L90.062 28.9206C90.2083 29.3906 90.6278 29.7089 91.1011 29.7089H94.8828C95.9412 29.7089 96.3813 31.1231 95.525 31.7727L92.4655 34.0937C92.0826 34.3842 91.9224 34.8991 92.0686 35.3692L93.2372 39.1246C93.5643 40.1757 92.4122 41.0497 91.5559 40.4001L88.4965 38.0791C88.1135 37.7886 87.595 37.7886 87.2121 38.0791L84.1526 40.4001C83.2963 41.0497 82.1442 40.1757 82.4713 39.1246L83.6399 35.3692C83.7862 34.8991 83.6259 34.3842 83.243 34.0937L80.1836 31.7727C79.3273 31.1231 79.7673 29.7089 80.8258 29.7089H84.6074C85.0808 29.7089 85.5003 29.3906 85.6466 28.9206L86.8152 25.1651Z" fill="#FFC3AA"/>
<path d="M110.282 25.1651C110.609 24.114 112.033 24.114 112.36 25.1651L113.529 28.9206C113.675 29.3906 114.095 29.7089 114.568 29.7089H118.35C119.408 29.7089 119.848 31.1231 118.992 31.7727L115.932 34.0937C115.55 34.3842 115.389 34.8991 115.536 35.3692L116.704 39.1246C117.031 40.1757 115.879 41.0497 115.023 40.4001L111.963 38.0791C111.58 37.7886 111.062 37.7886 110.679 38.0791L107.62 40.4001C106.763 41.0497 105.611 40.1757 105.938 39.1246L107.107 35.3692C107.253 34.8991 107.093 34.3842 106.71 34.0937L103.65 31.7727C102.794 31.1231 103.234 29.7089 104.293 29.7089H108.074C108.548 29.7089 108.967 29.3906 109.113 28.9206L110.282 25.1651Z" fill="#FFC3AA"/>
<g filter="url(#filter1_dd_599_72781)">
<path d="M137.088 21.9052C137.56 20.387 139.617 20.387 140.089 21.9052L141.777 27.3297C141.989 28.0087 142.595 28.4684 143.278 28.4684H148.741C150.27 28.4684 150.905 30.5111 149.668 31.4494L145.249 34.802C144.696 35.2216 144.465 35.9654 144.676 36.6443L146.364 42.0689C146.836 43.5871 145.172 44.8496 143.935 43.9112L139.516 40.5587C138.963 40.1391 138.214 40.1391 137.661 40.5587L133.242 43.9112C132.005 44.8496 130.341 43.5871 130.813 42.0689L132.501 36.6443C132.712 35.9654 132.481 35.2216 131.928 34.802L127.509 31.4494C126.272 30.5111 126.907 28.4684 128.436 28.4684H133.899C134.582 28.4684 135.188 28.0087 135.4 27.3297L137.088 21.9052Z" fill="#FD682A"/>
</g>
<path d="M215.825 25.0288C215.28 24.4826 214.631 24.0493 213.918 23.7537C213.205 23.4581 212.44 23.306 211.668 23.306C210.895 23.306 210.131 23.4581 209.417 23.7537C208.704 24.0493 208.056 24.4826 207.51 25.0288L206.377 26.1618L205.244 25.0288C204.141 23.9261 202.646 23.3066 201.086 23.3066C199.527 23.3066 198.031 23.9261 196.928 25.0288C195.826 26.1315 195.206 27.6271 195.206 29.1866C195.206 30.746 195.826 32.2416 196.928 33.3444L198.061 34.4773L206.377 42.7929L214.693 34.4773L215.825 33.3444C216.372 32.7984 216.805 32.1503 217.101 31.4369C217.396 30.7235 217.548 29.9588 217.548 29.1866C217.548 28.4143 217.396 27.6497 217.101 26.9363C216.805 26.2229 216.372 25.5747 215.825 25.0288Z" fill="#E5343C"/>
<defs>
<filter id="filter0_dd_599_72781" x="0.579983" y="0.765752" width="250.84" height="85.811" filterUnits="userSpaceOnUse" color-interpolation-filters="sRGB">
<feFlood flood-opacity="0" result="BackgroundImageFix"/>
<feColorMatrix in="SourceAlpha" type="matrix" values="0 0 0 0 0 0 0 0 0 0 0 0 0 0 0 0 0 0 127 0" result="hardAlpha"/>
<feMorphology radius="4.4685" operator="erode" in="SourceAlpha" result="effect1_dropShadow_599_72781"/>
<feOffset dy="4.4685"/>
<feGaussianBlur stdDeviation="3.35137"/>
<feColorMatrix type="matrix" values="0 0 0 0 0.0627451 0 0 0 0 0.0941176 0 0 0 0 0.156863 0 0 0 0.1 0"/>
<feBlend mode="normal" in2="BackgroundImageFix" result="effect1_dropShadow_599_72781"/>
<feColorMatrix in="SourceAlpha" type="matrix" values="0 0 0 0 0 0 0 0 0 0 0 0 0 0 0 0 0 0 127 0" result="hardAlpha"/>
<feMorphology radius="3.35137" operator="erode" in="SourceAlpha" result="effect2_dropShadow_599_72781"/>
<feOffset dy="11.1712"/>
<feGaussianBlur stdDeviation="8.37843"/>
<feColorMatrix type="matrix" values="0 0 0 0 0.0627451 0 0 0 0 0.0941176 0 0 0 0 0.156863 0 0 0 0.1 0"/>
<feBlend mode="normal" in2="effect1_dropShadow_599_72781" result="effect2_dropShadow_599_72781"/>
<feBlend mode="normal" in="SourceGraphic" in2="effect2_dropShadow_599_72781" result="shape"/>
</filter>
<filter id="filter1_dd_599_72781" x="124.29" y="19.0564" width="28.5974" height="28.5973" filterUnits="userSpaceOnUse" color-interpolation-filters="sRGB">
<feFlood flood-opacity="0" result="BackgroundImageFix"/>
<feColorMatrix in="SourceAlpha" type="matrix" values="0 0 0 0 0 0 0 0 0 0 0 0 0 0 0 0 0 0 127 0" result="hardAlpha"/>
<feMorphology radius="0.855072" operator="erode" in="SourceAlpha" result="effect1_dropShadow_599_72781"/>
<feOffset dy="0.855072"/>
<feGaussianBlur stdDeviation="0.855072"/>
<feColorMatrix type="matrix" values="0 0 0 0 0.0627451 0 0 0 0 0.0941176 0 0 0 0 0.156863 0 0 0 0.1 0"/>
<feBlend mode="normal" in2="BackgroundImageFix" result="effect1_dropShadow_599_72781"/>
<feColorMatrix in="SourceAlpha" type="matrix" values="0 0 0 0 0 0 0 0 0 0 0 0 0 0 0 0 0 0 127 0" result="hardAlpha"/>
<feOffset dy="0.855072"/>
<feGaussianBlur stdDeviation="1.28261"/>
<feColorMatrix type="matrix" values="0 0 0 0 0.0627451 0 0 0 0 0.0941176 0 0 0 0 0.156863 0 0 0 0.1 0"/>
<feBlend mode="normal" in2="effect1_dropShadow_599_72781" result="effect2_dropShadow_599_72781"/>
<feBlend mode="normal" in="SourceGraphic" in2="effect2_dropShadow_599_72781" result="shape"/>
</filter>
</defs>
</svg>
