<svg width="142" height="24" viewBox="0 0 142 24" fill="none" xmlns="http://www.w3.org/2000/svg">
<path d="M36.7821 23.261C37.8933 23.261 38.8001 22.3579 38.8001 21.2466V12.6653C38.8001 11.3645 39.1755 10.3573 39.9151 9.67719C40.3871 9.24236 40.9929 8.94133 41.7213 8.78524C42.6021 8.5957 43.2376 7.79665 43.2376 6.88982C43.2376 6.31748 42.9886 5.77487 42.5538 5.40322C42.2044 5.10219 41.7659 4.94238 41.3162 4.94238C41.2233 4.94238 41.1267 4.94981 41.0337 4.96468C39.3873 5.21369 38.0234 5.79346 36.9753 6.6817C35.511 7.92301 34.7677 9.68463 34.7677 11.9145V21.2504C34.7677 22.3616 35.6708 23.2647 36.7821 23.2647V23.261Z" fill="#FD682A"/>
<path d="M52.0309 22.2093C52.3654 22.8782 53.0344 23.2908 53.7814 23.2908C54.5284 23.2908 55.1974 22.8745 55.5319 22.2093L63.0281 7.82644C63.5112 6.86015 63.1172 5.68574 62.1547 5.2026C61.6864 4.96846 61.1549 4.9313 60.6606 5.09482C60.1664 5.25835 59.7613 5.6077 59.5308 6.07598L53.7851 16.9616L48.2178 6.07598C47.9837 5.6077 47.5823 5.26206 47.088 5.09482C46.59 4.92758 46.0623 4.96846 45.594 5.2026C45.1257 5.43674 44.7801 5.83812 44.6128 6.33613C44.4493 6.83042 44.4865 7.36188 44.7206 7.83016L52.0384 22.213L52.0309 22.2093Z" fill="#FD682A"/>
<path d="M66.7371 23.4096C67.9041 23.4096 68.8555 22.4582 68.8555 21.2912V7.1314C68.8555 5.96442 67.9041 5.013 66.7371 5.013C65.5701 5.013 64.6187 5.96442 64.6187 7.1314V21.2912C64.6187 22.4582 65.5701 23.4096 66.7371 23.4096Z" fill="#FD682A"/>
<path d="M79.7152 23.1272H79.7226C82.3799 23.1272 84.896 21.9714 86.6241 19.9533C86.9177 19.6151 87.0627 19.1617 87.0292 18.7157C86.9958 18.2623 86.7877 17.8498 86.442 17.5525C85.8362 17.0321 84.9629 17.0136 84.3422 17.4595L84.1489 17.6268L84.0449 17.7346C82.9634 18.9982 81.3839 19.7229 79.7189 19.7229C76.5747 19.7229 74.0178 17.1622 74.0141 14.0181C74.0141 10.8739 76.5747 8.31325 79.7189 8.31325C81.3839 8.31325 82.9597 9.03796 84.0449 10.3053C84.6581 11.0151 85.7322 11.0969 86.4457 10.4874C86.7914 10.1901 86.9995 9.77755 87.0329 9.32414C87.0664 8.87072 86.9215 8.43218 86.6279 8.08654C84.8997 6.06849 82.3836 4.91266 79.7263 4.91266H79.7189C74.6979 4.91266 70.6135 9.0008 70.6098 14.0218C70.6098 19.0428 74.6979 23.1272 79.7189 23.1309L79.7152 23.1272Z" fill="#FD682A"/>
<path d="M97.1158 23.0863H97.1233C99.7508 23.0863 102.245 21.9453 103.965 19.9607C104.627 19.1988 104.545 18.0393 103.783 17.3777C103.021 16.7162 101.862 16.7979 101.2 17.5598C100.175 18.7454 98.6879 19.4255 97.1196 19.4255H97.1158C94.8265 19.4255 92.7936 17.9724 92.0243 15.8465H104.352C105.359 15.8465 106.18 15.0252 106.18 14.018C106.18 9.01932 102.111 4.94976 97.1121 4.94604C92.1134 4.94604 88.0476 9.01561 88.0439 14.0143C88.0439 19.013 92.1134 23.0825 97.1121 23.0825L97.1158 23.0863ZM97.1158 8.60679C99.4052 8.60679 101.438 10.0599 102.204 12.1858H92.0243C92.7899 10.0599 94.8228 8.60679 97.1121 8.60679H97.1158Z" fill="#FD682A"/>
<path d="M23.5997 23.0863H23.6071C26.2347 23.0863 28.7284 21.9453 30.4492 19.9607C31.1107 19.1988 31.029 18.0393 30.2671 17.3777C29.5052 16.7162 28.3456 16.7979 27.6841 17.5598C26.6584 18.7454 25.1718 19.4255 23.6034 19.4255H23.5997C21.3103 19.4255 19.2774 17.9724 18.5081 15.8465H30.8357C31.8429 15.8465 32.6642 15.0252 32.6642 14.018C32.6642 9.01932 28.5946 4.94976 23.596 4.94604C18.5973 4.94604 14.5314 9.01561 14.5277 14.0143C14.5277 19.013 18.5973 23.0825 23.596 23.0825L23.5997 23.0863ZM23.5997 8.60679C25.889 8.60679 27.922 10.0599 28.6913 12.1858H18.5118C19.2774 10.0599 21.3103 8.60679 23.5997 8.60679Z" fill="#FD682A"/>
<path d="M4.80543 15.4303L7.42927 15.9878C8.79323 16.2665 9.42131 16.9652 9.42131 17.8758C9.42131 18.9238 8.44016 19.8306 6.7603 19.8306C5.22911 19.8306 3.97665 19.1505 3.45634 18.2065C3.06611 17.4967 2.2299 17.1659 1.44943 17.3815L1.36767 17.4038C0.208124 17.7234 -0.293603 19.0762 0.3605 20.0871C1.34537 21.6108 3.50465 23.0454 6.79375 23.0454C11.1235 23.0454 13.3311 20.18 13.3311 17.597C13.3311 15.0141 11.6549 13.1261 8.44016 12.4274L5.7457 11.9033C4.69765 11.6952 3.5827 11.1155 3.5827 10.1231C3.5827 8.88184 5.047 8.16827 6.48157 8.16827C7.91613 8.16827 8.84526 8.79264 9.29123 9.50249C9.71492 10.1752 10.5214 10.4948 11.2833 10.2792C12.4391 9.94847 12.952 8.57708 12.2681 7.5885C11.3465 6.24684 9.33212 4.99438 6.58934 4.99438C3.06239 4.99438 0 7.51045 0 10.4799C0 12.8213 1.79878 14.7762 4.80171 15.4414L4.80543 15.4303Z" fill="#FD682A"/>
<path d="M115.341 4.07275C116.475 4.07275 117.326 4.36636 117.88 4.94241C118.445 5.53334 118.72 6.32495 118.72 7.36185C118.72 7.89702 118.604 8.42477 118.381 8.9265C118.151 9.43937 117.757 9.98941 117.203 10.5618C116.62 11.1638 115.817 11.8997 114.814 12.7433C114.803 12.7508 114.795 12.7619 114.784 12.7693L108.414 19.1394C108.061 19.4479 107.834 19.7303 107.708 20.0091C107.581 20.2878 107.514 20.5517 107.514 20.797V21.7596C107.514 22.0792 107.626 22.3579 107.842 22.5697C108.053 22.7853 108.336 22.8968 108.655 22.8968H121.243C121.708 22.8968 122.143 22.7147 122.473 22.3876C122.8 22.0606 122.983 21.622 122.983 21.1575V21.1203C122.983 20.1652 122.202 19.3847 121.247 19.3847H113.61L118.627 14.2894C119.485 13.5498 120.21 12.8251 120.794 12.119C121.392 11.3942 121.856 10.6361 122.172 9.86677C122.496 9.08259 122.659 8.21293 122.659 7.27266C122.659 6.08338 122.399 4.96842 121.886 3.96869C121.366 2.95037 120.552 2.12159 119.463 1.50837C118.385 0.898866 116.999 0.594116 115.345 0.594116C114.126 0.594116 113.037 0.798523 112.108 1.20362C111.183 1.60872 110.395 2.15504 109.763 2.82773C109.135 3.4967 108.655 4.25486 108.332 5.07992C108.012 5.89755 107.842 6.73004 107.819 7.54767C107.819 7.83013 107.931 8.08657 108.143 8.27982C108.343 8.46565 108.607 8.56227 108.897 8.56227H110.462C110.685 8.56227 110.915 8.49166 111.153 8.35044C111.354 8.23151 111.606 7.98993 111.684 7.49936C111.796 6.83039 112.004 6.2246 112.298 5.70058C112.58 5.19513 112.97 4.80862 113.483 4.51501C113.996 4.22513 114.62 4.07647 115.341 4.07647V4.07275Z" fill="#FD682A"/>
<path d="M135.098 0.590332C134.251 0.590332 133.79 0.987997 133.556 1.32248L124.149 14.5866C124.001 14.8096 123.889 15.0363 123.826 15.2593C123.759 15.4898 123.729 15.6496 123.729 15.7834V17.0358C123.729 17.3703 123.848 17.6639 124.071 17.8832C124.294 18.1062 124.588 18.2251 124.922 18.2251H134.6V21.3953C134.6 22.4842 135.485 23.3687 136.574 23.3687C137.663 23.3687 138.547 22.4842 138.547 21.3953V18.2251H140.168C140.662 18.2251 141.123 18.0318 141.472 17.6825C141.818 17.3331 142.007 16.8649 142 16.3743C141.989 15.3745 141.167 14.5606 140.168 14.5606H138.547V1.77961C138.547 1.44884 138.428 1.15524 138.205 0.928534C137.982 0.705545 137.689 0.590332 137.358 0.590332H135.102H135.098ZM134.63 14.6238H128.457L134.63 5.83803V14.6238Z" fill="#FD682A"/>
</svg>
