<svg width="142" height="23" viewBox="0 0 142 23" fill="none" xmlns="http://www.w3.org/2000/svg">
<path d="M36.7821 22.8503C37.8933 22.8503 38.8001 21.9472 38.8001 20.836V12.2546C38.8001 10.9538 39.1755 9.94667 39.9151 9.26655C40.3871 8.83172 40.9929 8.53068 41.7213 8.37459C42.6021 8.18505 43.2376 7.386 43.2376 6.47918C43.2376 5.90684 42.9886 5.36423 42.5538 4.99258C42.2044 4.69154 41.7659 4.53174 41.3162 4.53174C41.2233 4.53174 41.1267 4.53917 41.0337 4.55404C39.3873 4.80304 38.0234 5.38281 36.9753 6.27105C35.511 7.51236 34.7677 9.27398 34.7677 11.5039V20.8397C34.7677 21.9509 35.6708 22.8541 36.7821 22.8541V22.8503Z" fill="white"/>
<path d="M52.0309 21.7987C52.3654 22.4677 53.0344 22.8803 53.7814 22.8803C54.5284 22.8803 55.1974 22.464 55.5319 21.7987L63.0281 7.41592C63.5112 6.44963 63.1172 5.27522 62.1547 4.79208C61.6864 4.55794 61.1549 4.52077 60.6606 4.6843C60.1664 4.84783 59.7613 5.19718 59.5308 5.66545L53.7851 16.5511L48.2178 5.66545C47.9837 5.19718 47.5823 4.85154 47.088 4.6843C46.59 4.51706 46.0623 4.55794 45.594 4.79208C45.1257 5.02621 44.7801 5.4276 44.6128 5.92561C44.4493 6.4199 44.4865 6.95136 44.7206 7.41964L52.0384 21.8025L52.0309 21.7987Z" fill="white"/>
<path d="M66.7371 22.9992C67.9041 22.9992 68.8555 22.0478 68.8555 20.8808V6.72094C68.8555 5.55396 67.9041 4.60254 66.7371 4.60254C65.5701 4.60254 64.6187 5.55396 64.6187 6.72094V20.8808C64.6187 22.0478 65.5701 22.9992 66.7371 22.9992Z" fill="white"/>
<path d="M79.7152 22.7167H79.7226C82.3799 22.7167 84.896 21.5609 86.6241 19.5428C86.9177 19.2046 87.0627 18.7512 87.0292 18.3053C86.9958 17.8518 86.7877 17.4393 86.442 17.142C85.8362 16.6217 84.9629 16.6031 84.3422 17.0491L84.1489 17.2163L84.0449 17.3241C82.9634 18.5877 81.3839 19.3124 79.7189 19.3124C76.5747 19.3124 74.0178 16.7518 74.0141 13.6076C74.0141 10.4635 76.5747 7.90279 79.7189 7.90279C81.3839 7.90279 82.9597 8.6275 84.0449 9.89483C84.6581 10.6047 85.7322 10.6864 86.4457 10.0769C86.7914 9.77962 86.9995 9.36709 87.0329 8.91367C87.0664 8.46026 86.9215 8.02171 86.6279 7.67608C84.8997 5.65802 82.3836 4.5022 79.7263 4.5022H79.7189C74.6979 4.5022 70.6135 8.59034 70.6098 13.6113C70.6098 18.6323 74.6979 22.7167 79.7189 22.7205L79.7152 22.7167Z" fill="white"/>
<path d="M97.1158 22.6758H97.1233C99.7508 22.6758 102.245 21.5349 103.965 19.5503C104.627 18.7884 104.545 17.6289 103.783 16.9673C103.021 16.3058 101.862 16.3875 101.2 17.1494C100.175 18.335 98.6879 19.0151 97.1196 19.0151H97.1158C94.8265 19.0151 92.7936 17.562 92.0243 15.4361H104.352C105.359 15.4361 106.18 14.6148 106.18 13.6076C106.18 8.60892 102.111 4.53936 97.1121 4.53564C92.1134 4.53564 88.0476 8.60521 88.0439 13.6039C88.0439 18.6026 92.1134 22.6721 97.1121 22.6721L97.1158 22.6758ZM97.1158 8.19639C99.4052 8.19639 101.438 9.64954 102.204 11.7754H92.0243C92.7899 9.64954 94.8228 8.19639 97.1121 8.19639H97.1158Z" fill="white"/>
<path d="M23.5997 22.6758H23.6071C26.2347 22.6758 28.7284 21.5349 30.4492 19.5503C31.1107 18.7884 31.029 17.6289 30.2671 16.9673C29.5052 16.3058 28.3456 16.3875 27.6841 17.1494C26.6584 18.335 25.1718 19.0151 23.6034 19.0151H23.5997C21.3103 19.0151 19.2774 17.562 18.5081 15.4361H30.8357C31.8429 15.4361 32.6642 14.6148 32.6642 13.6076C32.6642 8.60892 28.5946 4.53936 23.596 4.53564C18.5973 4.53564 14.5314 8.60521 14.5277 13.6039C14.5277 18.6026 18.5973 22.6721 23.596 22.6721L23.5997 22.6758ZM23.5997 8.19639C25.889 8.19639 27.922 9.64954 28.6913 11.7754H18.5118C19.2774 9.64954 21.3103 8.19639 23.5997 8.19639Z" fill="white"/>
<path d="M4.80543 15.0199L7.42927 15.5774C8.79323 15.8561 9.42131 16.5548 9.42131 17.4654C9.42131 18.5134 8.44016 19.4202 6.7603 19.4202C5.22911 19.4202 3.97665 18.7401 3.45634 17.7961C3.06611 17.0863 2.2299 16.7555 1.44943 16.9711L1.36767 16.9934C0.208124 17.313 -0.293603 18.6658 0.3605 19.6767C1.34537 21.2004 3.50465 22.635 6.79375 22.635C11.1235 22.635 13.3311 19.7696 13.3311 17.1866C13.3311 14.6037 11.6549 12.7157 8.44016 12.017L5.7457 11.4929C4.69765 11.2848 3.5827 10.7051 3.5827 9.71275C3.5827 8.47144 5.047 7.75787 6.48157 7.75787C7.91613 7.75787 8.84526 8.38224 9.29123 9.09209C9.71492 9.76478 10.5214 10.0844 11.2833 9.86884C12.4391 9.53807 12.952 8.16668 12.2681 7.1781C11.3465 5.83644 9.33212 4.58398 6.58934 4.58398C3.06239 4.58398 0 7.10005 0 10.0695C0 12.4109 1.79878 14.3658 4.80171 15.031L4.80543 15.0199Z" fill="white"/>
<path d="M115.341 3.66223C116.475 3.66223 117.326 3.95583 117.88 4.53189C118.445 5.12281 118.72 5.91442 118.72 6.95133C118.72 7.4865 118.604 8.01425 118.381 8.51597C118.151 9.02885 117.757 9.57889 117.203 10.1512C116.62 10.7533 115.817 11.4892 114.814 12.3328C114.803 12.3402 114.795 12.3514 114.784 12.3588L108.414 18.7289C108.061 19.0374 107.834 19.3198 107.708 19.5986C107.581 19.8773 107.514 20.1412 107.514 20.3865V21.349C107.514 21.6686 107.626 21.9474 107.842 22.1592C108.053 22.3748 108.336 22.4863 108.655 22.4863H121.243C121.708 22.4863 122.143 22.3042 122.473 21.9771C122.8 21.6501 122.983 21.2115 122.983 20.747V20.7098C122.983 19.7547 122.202 18.9742 121.247 18.9742H113.61L118.627 13.8789C119.485 13.1393 120.21 12.4146 120.794 11.7084C121.392 10.9837 121.856 10.2256 122.172 9.45625C122.496 8.67207 122.659 7.80241 122.659 6.86213C122.659 5.67286 122.399 4.5579 121.886 3.55817C121.366 2.53985 120.552 1.71107 119.463 1.09785C118.385 0.488343 116.999 0.183594 115.345 0.183594C114.126 0.183594 113.037 0.388001 112.108 0.793099C111.183 1.1982 110.395 1.74452 109.763 2.4172C109.135 3.08617 108.655 3.84434 108.332 4.6694C108.012 5.48703 107.842 6.31952 107.819 7.13715C107.819 7.4196 107.931 7.67604 108.143 7.8693C108.343 8.05513 108.607 8.15175 108.897 8.15175H110.462C110.685 8.15175 110.915 8.08114 111.153 7.93992C111.354 7.82099 111.606 7.57941 111.684 7.08883C111.796 6.41987 112.004 5.81408 112.298 5.29005C112.58 4.78461 112.97 4.39809 113.483 4.10449C113.996 3.8146 114.62 3.66595 115.341 3.66595V3.66223Z" fill="white"/>
<path d="M135.098 0.179932C134.251 0.179932 133.79 0.577597 133.556 0.912081L124.149 14.1762C124.001 14.3992 123.889 14.6259 123.826 14.8489C123.759 15.0794 123.729 15.2392 123.729 15.373V16.6254C123.729 16.9599 123.848 17.2535 124.071 17.4728C124.294 17.6958 124.588 17.8147 124.922 17.8147H134.6V20.9849C134.6 22.0738 135.485 22.9583 136.574 22.9583C137.663 22.9583 138.547 22.0738 138.547 20.9849V17.8147H140.168C140.662 17.8147 141.123 17.6214 141.472 17.2721C141.818 16.9227 142.007 16.4545 142 15.9639C141.989 14.9641 141.167 14.1502 140.168 14.1502H138.547V1.36921C138.547 1.03844 138.428 0.74484 138.205 0.518134C137.982 0.295144 137.689 0.179932 137.358 0.179932H135.102H135.098ZM134.63 14.2134H128.457L134.63 5.42762V14.2134Z" fill="white"/>
</svg>
