<svg width="19" height="19" viewBox="0 0 19 19" fill="none" xmlns="http://www.w3.org/2000/svg">
<path d="M7.5066 4.50693H6.1066C5.33341 4.50693 4.7066 5.13373 4.7066 5.90693V14.3069C4.7066 15.0801 5.33341 15.7069 6.1066 15.7069H13.1066C13.8798 15.7069 14.5066 15.0801 14.5066 14.3069V5.90693C14.5066 5.13373 13.8798 4.50693 13.1066 4.50693H11.7066M7.5066 4.50693C7.5066 5.28013 8.13341 5.90693 8.9066 5.90693H10.3066C11.0798 5.90693 11.7066 5.28013 11.7066 4.50693M7.5066 4.50693C7.5066 3.73373 8.13341 3.10693 8.9066 3.10693H10.3066C11.0798 3.10693 11.7066 3.73373 11.7066 4.50693M9.6066 9.40693H11.7066M9.6066 12.2069H11.7066M7.5066 9.40693H7.5136M7.5066 12.2069H7.5136" stroke="#141518" stroke-width="1.2525" stroke-linecap="round"/>
</svg>
