<svg width="19" height="19" viewBox="0 0 19 19" fill="none" xmlns="http://www.w3.org/2000/svg">
<path d="M9.76346 3.33759C9.45592 3.03005 8.95731 3.03005 8.64977 3.33759L3.13727 8.85009C2.82973 9.15762 2.82973 9.65624 3.13727 9.96378C3.44481 10.2713 3.94342 10.2713 4.25096 9.96378L4.48162 9.73313V14.9194C4.48162 15.3544 4.83419 15.7069 5.26912 15.7069H6.84412C7.27904 15.7069 7.63162 15.3544 7.63162 14.9194V13.3444C7.63162 12.9095 7.98419 12.5569 8.41912 12.5569H9.99412C10.429 12.5569 10.7816 12.9095 10.7816 13.3444V14.9194C10.7816 15.3544 11.1342 15.7069 11.5691 15.7069H13.1441C13.579 15.7069 13.9316 15.3544 13.9316 14.9194V9.73313L14.1623 9.96378C14.4698 10.2713 14.9684 10.2713 15.276 9.96378C15.5835 9.65624 15.5835 9.15762 15.276 8.85009L9.76346 3.33759Z" fill="white"/>
</svg>
