<svg width="57" height="57" viewBox="0 0 57 57" fill="none" xmlns="http://www.w3.org/2000/svg">
<rect x="4.5" y="4.92609" width="48" height="48" rx="24" fill="#FDF4EE"/>
<path fill-rule="evenodd" clip-rule="evenodd" d="M20.25 28.9261C20.25 26.7381 21.1192 24.6396 22.6664 23.0925C24.2135 21.5453 26.312 20.6761 28.5 20.6761C30.688 20.6761 32.7865 21.5453 34.3336 23.0925C35.8808 24.6396 36.75 26.7381 36.75 28.9261C36.75 31.1141 35.8808 33.2125 34.3336 34.7597C32.7865 36.3069 30.688 37.1761 28.5 37.1761C26.312 37.1761 24.2135 36.3069 22.6664 34.7597C21.1192 33.2125 20.25 31.1141 20.25 28.9261ZM28.5 19.1761C23.115 19.1761 18.75 23.5411 18.75 28.9261C18.75 34.3111 23.115 38.6761 28.5 38.6761C33.885 38.6761 38.25 34.3111 38.25 28.9261C38.25 23.5411 33.885 19.1761 28.5 19.1761ZM29.25 22.9261C29.25 22.7272 29.171 22.5364 29.0303 22.3958C28.8897 22.2551 28.6989 22.1761 28.5 22.1761C28.3011 22.1761 28.1103 22.2551 27.9697 22.3958C27.829 22.5364 27.75 22.7272 27.75 22.9261V28.9261C27.75 29.1251 27.829 29.3161 27.97 29.4561L30.47 31.9561C30.5387 32.0298 30.6215 32.0889 30.7135 32.1299C30.8055 32.1709 30.9048 32.1929 31.0055 32.1947C31.1062 32.1965 31.2062 32.1779 31.2996 32.1402C31.393 32.1025 31.4778 32.0463 31.549 31.9751C31.6203 31.9039 31.6764 31.8191 31.7141 31.7257C31.7518 31.6323 31.7704 31.5323 31.7686 31.4316C31.7668 31.3309 31.7448 31.2315 31.7038 31.1395C31.6628 31.0475 31.6037 30.9647 31.53 30.8961L29.25 28.6161V22.9261Z" fill="#FD682A"/>
<rect x="4.5" y="4.92609" width="48" height="48" rx="24" stroke="#FFF9F5" stroke-width="8"/>
</svg>
