<svg width="57" height="57" viewBox="0 0 57 57" fill="none" xmlns="http://www.w3.org/2000/svg">
<rect x="4.5" y="4.92609" width="48" height="48" rx="24" fill="#FDF4EE"/>
<path fill-rule="evenodd" clip-rule="evenodd" d="M28.5 20.6761C26.7894 20.6761 25.1211 21.2078 23.726 22.1977C22.3309 23.1875 21.2779 24.5866 20.7129 26.2012C20.1479 27.8158 20.0988 29.5661 20.5723 31.2098C21.0458 32.8536 22.0186 34.3095 23.356 35.3761C23.598 34.1904 24.2421 33.1246 25.1795 32.3592C26.1168 31.5938 27.2898 31.1757 28.5 31.1757C29.7102 31.1757 30.8832 31.5938 31.8205 32.3592C32.7579 33.1246 33.402 34.1904 33.644 35.3761C34.9814 34.3095 35.9542 32.8536 36.4277 31.2098C36.9012 29.5661 36.8521 27.8158 36.2871 26.2012C35.7221 24.5866 34.6691 23.1875 33.274 22.1977C31.8789 21.2078 30.2106 20.6761 28.5 20.6761ZM32.247 36.2781C32.2083 35.3103 31.7965 34.395 31.0981 33.7239C30.3996 33.0528 29.4686 32.6781 28.5 32.6781C27.5314 32.6781 26.6004 33.0528 25.9019 33.7239C25.2035 34.395 24.7917 35.3103 24.753 36.2781C25.9131 36.8702 27.1975 37.178 28.5 37.1761C29.85 37.1761 31.123 36.8521 32.247 36.2781ZM18.75 28.9261C18.75 23.5411 23.115 19.1761 28.5 19.1761C33.885 19.1761 38.25 23.5411 38.25 28.9261C38.25 34.3111 33.885 38.6761 28.5 38.6761C23.115 38.6761 18.75 34.3111 18.75 28.9261ZM28.5 24.1761C27.9033 24.1761 27.331 24.4131 26.909 24.8351C26.4871 25.2571 26.25 25.8293 26.25 26.4261C26.25 27.0228 26.4871 27.5951 26.909 28.0171C27.331 28.439 27.9033 28.6761 28.5 28.6761C29.0967 28.6761 29.669 28.439 30.091 28.0171C30.5129 27.5951 30.75 27.0228 30.75 26.4261C30.75 25.8293 30.5129 25.2571 30.091 24.8351C29.669 24.4131 29.0967 24.1761 28.5 24.1761ZM24.75 26.4261C24.75 25.4315 25.1451 24.4777 25.8483 23.7744C26.5516 23.0712 27.5054 22.6761 28.5 22.6761C29.4946 22.6761 30.4484 23.0712 31.1517 23.7744C31.8549 24.4777 32.25 25.4315 32.25 26.4261C32.25 27.4206 31.8549 28.3745 31.1517 29.0777C30.4484 29.781 29.4946 30.1761 28.5 30.1761C27.5054 30.1761 26.5516 29.781 25.8483 29.0777C25.1451 28.3745 24.75 27.4206 24.75 26.4261Z" fill="#FD682A"/>
<rect x="4.5" y="4.92609" width="48" height="48" rx="24" stroke="#FFF9F5" stroke-width="8"/>
</svg>
