<svg width="57" height="57" viewBox="0 0 57 57" fill="none" xmlns="http://www.w3.org/2000/svg">
<rect x="4.5" y="4.92609" width="48" height="48" rx="24" fill="#FDF4EE"/>
<path fill-rule="evenodd" clip-rule="evenodd" d="M24.25 22.7041C24.25 22.0901 24.705 21.6761 25.167 21.6761H31.833C32.295 21.6761 32.75 22.0901 32.75 22.7041V35.1481C32.75 35.7621 32.295 36.1761 31.833 36.1761H25.167C24.705 36.1761 24.25 35.7621 24.25 35.1481V22.7041ZM25.167 20.1761C23.787 20.1761 22.75 21.3541 22.75 22.7041V35.1481C22.75 36.4981 23.787 37.6761 25.167 37.6761H31.833C33.213 37.6761 34.25 36.4981 34.25 35.1481V22.7041C34.25 21.3541 33.213 20.1761 31.833 20.1761H25.167ZM28.5 33.6761C28.3011 33.6761 28.1103 33.7551 27.9697 33.8958C27.829 34.0364 27.75 34.2272 27.75 34.4261C27.75 34.625 27.829 34.8158 27.9697 34.9564C28.1103 35.0971 28.3011 35.1761 28.5 35.1761H28.51C28.7089 35.1761 28.8997 35.0971 29.0403 34.9564C29.181 34.8158 29.26 34.625 29.26 34.4261C29.26 34.2272 29.181 34.0364 29.0403 33.8958C28.8997 33.7551 28.7089 33.6761 28.51 33.6761H28.5Z" fill="#FD682A"/>
<rect x="4.5" y="4.92609" width="48" height="48" rx="24" stroke="#FFF9F5" stroke-width="8"/>
</svg>
