<svg width="57" height="57" viewBox="0 0 57 57" fill="none" xmlns="http://www.w3.org/2000/svg">
<rect x="4.5" y="4.92609" width="48" height="48" rx="24" fill="#FDF4EE"/>
<path fill-rule="evenodd" clip-rule="evenodd" d="M26.25 19.9261C26.25 19.7272 26.171 19.5364 26.0303 19.3958C25.8897 19.2551 25.6989 19.1761 25.5 19.1761C25.3011 19.1761 25.1103 19.2551 24.9697 19.3958C24.829 19.5364 24.75 19.7272 24.75 19.9261V21.1761H21C20.31 21.1761 19.75 21.7361 19.75 22.4261V35.4261C19.75 36.1161 20.31 36.6761 21 36.6761H36C36.69 36.6761 37.25 36.1161 37.25 35.4261V22.4261C37.25 21.7361 36.69 21.1761 36 21.1761H32.25V19.9261C32.25 19.7272 32.171 19.5364 32.0303 19.3958C31.8897 19.2551 31.6989 19.1761 31.5 19.1761C31.3011 19.1761 31.1103 19.2551 30.9697 19.3958C30.829 19.5364 30.75 19.7272 30.75 19.9261V21.1761H26.25V19.9261ZM21.25 22.6761H24.75V23.9261C24.75 24.125 24.829 24.3158 24.9697 24.4564C25.1103 24.5971 25.3011 24.6761 25.5 24.6761C25.6989 24.6761 25.8897 24.5971 26.0303 24.4564C26.171 24.3158 26.25 24.125 26.25 23.9261V22.6761H30.75V23.9261C30.75 24.125 30.829 24.3158 30.9697 24.4564C31.1103 24.5971 31.3011 24.6761 31.5 24.6761C31.6989 24.6761 31.8897 24.5971 32.0303 24.4564C32.171 24.3158 32.25 24.125 32.25 23.9261V22.6761H35.75V26.1761H21.25V22.6761ZM21.25 27.6761V35.1761H35.75V27.6761H21.25ZM23.25 29.9261C23.25 29.7272 23.329 29.5364 23.4697 29.3958C23.6103 29.2551 23.8011 29.1761 24 29.1761H25C25.1989 29.1761 25.3897 29.2551 25.5303 29.3958C25.671 29.5364 25.75 29.7272 25.75 29.9261C25.75 30.125 25.671 30.3158 25.5303 30.4564C25.3897 30.5971 25.1989 30.6761 25 30.6761H24C23.8011 30.6761 23.6103 30.5971 23.4697 30.4564C23.329 30.3158 23.25 30.125 23.25 29.9261ZM28 29.1761C27.8011 29.1761 27.6103 29.2551 27.4697 29.3958C27.329 29.5364 27.25 29.7272 27.25 29.9261C27.25 30.125 27.329 30.3158 27.4697 30.4564C27.6103 30.5971 27.8011 30.6761 28 30.6761H29C29.1989 30.6761 29.3897 30.5971 29.5303 30.4564C29.671 30.3158 29.75 30.125 29.75 29.9261C29.75 29.7272 29.671 29.5364 29.5303 29.3958C29.3897 29.2551 29.1989 29.1761 29 29.1761H28ZM31.25 29.9261C31.25 29.7272 31.329 29.5364 31.4697 29.3958C31.6103 29.2551 31.8011 29.1761 32 29.1761H33C33.1989 29.1761 33.3897 29.2551 33.5303 29.3958C33.671 29.5364 33.75 29.7272 33.75 29.9261C33.75 30.125 33.671 30.3158 33.5303 30.4564C33.3897 30.5971 33.1989 30.6761 33 30.6761H32C31.8011 30.6761 31.6103 30.5971 31.4697 30.4564C31.329 30.3158 31.25 30.125 31.25 29.9261ZM28 32.1761C27.8011 32.1761 27.6103 32.2551 27.4697 32.3958C27.329 32.5364 27.25 32.7272 27.25 32.9261C27.25 33.125 27.329 33.3158 27.4697 33.4564C27.6103 33.5971 27.8011 33.6761 28 33.6761H29C29.1989 33.6761 29.3897 33.5971 29.5303 33.4564C29.671 33.3158 29.75 33.125 29.75 32.9261C29.75 32.7272 29.671 32.5364 29.5303 32.3958C29.3897 32.2551 29.1989 32.1761 29 32.1761H28ZM31.25 32.9261C31.25 32.7272 31.329 32.5364 31.4697 32.3958C31.6103 32.2551 31.8011 32.1761 32 32.1761H33C33.1989 32.1761 33.3897 32.2551 33.5303 32.3958C33.671 32.5364 33.75 32.7272 33.75 32.9261C33.75 33.125 33.671 33.3158 33.5303 33.4564C33.3897 33.5971 33.1989 33.6761 33 33.6761H32C31.8011 33.6761 31.6103 33.5971 31.4697 33.4564C31.329 33.3158 31.25 33.125 31.25 32.9261ZM24 32.1761C23.8011 32.1761 23.6103 32.2551 23.4697 32.3958C23.329 32.5364 23.25 32.7272 23.25 32.9261C23.25 33.125 23.329 33.3158 23.4697 33.4564C23.6103 33.5971 23.8011 33.6761 24 33.6761H25C25.1989 33.6761 25.3897 33.5971 25.5303 33.4564C25.671 33.3158 25.75 33.125 25.75 32.9261C25.75 32.7272 25.671 32.5364 25.5303 32.3958C25.3897 32.2551 25.1989 32.1761 25 32.1761H24Z" fill="#FD682A"/>
<rect x="4.5" y="4.92609" width="48" height="48" rx="24" stroke="#FFF9F5" stroke-width="8"/>
</svg>
