<svg width="57" height="57" viewBox="0 0 57 57" fill="none" xmlns="http://www.w3.org/2000/svg">
<rect x="4.5" y="4.92603" width="48" height="48" rx="24" fill="#FDF4EE"/>
<path fill-rule="evenodd" clip-rule="evenodd" d="M30.5703 20.1031C30.2421 19.7751 29.7972 19.5909 29.3333 19.5909C28.8693 19.5909 28.4244 19.7751 28.0963 20.1031L26.5223 21.6761H19.8333C19.6343 21.6761 19.4436 21.7551 19.3029 21.8957C19.1623 22.0364 19.0833 22.2272 19.0833 22.4261V31.4261C19.0833 31.6251 19.1623 31.8161 19.3033 31.9561L24.8033 37.4561C25.4163 38.0701 26.1223 38.3871 26.8243 38.4101C27.3329 38.4282 27.8343 38.2848 28.2565 38.0004C28.6786 37.716 28.9999 37.3053 29.1743 36.8271L29.3033 36.9571C29.9163 37.5701 30.6223 37.8871 31.3243 37.9101C31.839 37.9281 32.3461 37.7807 32.771 37.4895C33.1959 37.1983 33.5163 36.7787 33.6853 36.2921C34.2023 36.6861 34.7643 36.8921 35.3253 36.9101C35.6557 36.9215 35.9849 36.8649 36.2925 36.7436C36.6001 36.6224 36.8795 36.4391 37.1132 36.2053C37.3469 35.9715 37.5301 35.692 37.6512 35.3844C37.7723 35.0768 37.8288 34.7475 37.8173 34.4171C37.7943 33.7151 37.4773 33.0091 36.8633 32.3961L36.6433 32.1761H37.8333C38.0322 32.1761 38.2229 32.0971 38.3636 31.9564C38.5042 31.8157 38.5833 31.625 38.5833 31.4261V22.4261C38.5833 22.2272 38.5042 22.0364 38.3636 21.8957C38.2229 21.7551 38.0322 21.6761 37.8333 21.6761H32.1433L30.5703 20.1031ZM35.1443 30.6761H37.0833V23.1761H31.8333C31.6344 23.1759 31.4438 23.0968 31.3033 22.9561L29.5103 21.1631C29.487 21.1398 29.4594 21.1213 29.4291 21.1087C29.3987 21.0961 29.3661 21.0896 29.3333 21.0896C29.3004 21.0896 29.2678 21.0961 29.2374 21.1087C29.2071 21.1213 29.1795 21.1398 29.1563 21.1631L27.3643 22.9561L24.3933 25.9261L24.9483 26.4811C25.0643 26.5972 25.2021 26.6893 25.3538 26.7521C25.5055 26.815 25.6681 26.8473 25.8323 26.8473C25.9964 26.8473 26.159 26.815 26.3107 26.7521C26.4624 26.6893 26.6002 26.5972 26.7163 26.4811L28.3033 24.8961C28.4439 24.7556 28.6345 24.6767 28.8333 24.6767C29.032 24.6767 29.2226 24.7556 29.3633 24.8961L35.1433 30.6761H35.1443ZM27.8183 35.9661C27.8093 35.7001 27.6893 35.3431 27.3033 34.9561L25.8033 33.4561C25.7296 33.3874 25.6705 33.3046 25.6295 33.2126C25.5885 33.1206 25.5664 33.0213 25.5647 32.9206C25.5629 32.8199 25.5814 32.7199 25.6191 32.6265C25.6569 32.5331 25.713 32.4482 25.7842 32.377C25.8554 32.3058 25.9403 32.2497 26.0337 32.2119C26.127 32.1742 26.2271 32.1557 26.3278 32.1575C26.4285 32.1593 26.5278 32.1813 26.6198 32.2223C26.7118 32.2633 26.7946 32.3224 26.8633 32.3961L28.3633 33.8961L30.3633 35.8961C30.7503 36.2821 31.1073 36.4021 31.3733 36.4111C31.4987 36.416 31.6238 36.3949 31.7406 36.3492C31.8575 36.3034 31.9637 36.234 32.0524 36.1452C32.1412 36.0565 32.2106 35.9503 32.2564 35.8335C32.3021 35.7166 32.3232 35.5915 32.3183 35.4661C32.3093 35.2001 32.1893 34.8431 31.8033 34.4561L28.3033 30.9561C28.2296 30.8874 28.1705 30.8046 28.1295 30.7126C28.0885 30.6206 28.0664 30.5213 28.0647 30.4206C28.0629 30.3199 28.0814 30.2199 28.1191 30.1265C28.1568 30.0331 28.213 29.9482 28.2842 29.877C28.3554 29.8058 28.4403 29.7497 28.5337 29.7119C28.627 29.6742 28.7271 29.6557 28.8278 29.6575C28.9285 29.6593 29.0278 29.6813 29.1198 29.7223C29.2118 29.7633 29.2946 29.8224 29.3633 29.8961L32.8633 33.3961L34.3633 34.8961C34.7503 35.2821 35.1073 35.4021 35.3733 35.4111C35.4987 35.416 35.6238 35.3949 35.7406 35.3492C35.8575 35.3034 35.9637 35.234 36.0524 35.1452C36.1412 35.0565 36.2106 34.9503 36.2564 34.8335C36.3021 34.7166 36.3232 34.5915 36.3183 34.4661C36.3093 34.2001 36.1893 33.8431 35.8033 33.4561L28.8333 26.4861L27.7773 27.5421C27.2615 28.0578 26.5621 28.3475 25.8328 28.3475C25.1034 28.3475 24.404 28.0578 23.8883 27.5421L22.8033 26.4561C22.6628 26.3154 22.5839 26.1248 22.5839 25.9261C22.5839 25.7273 22.6628 25.5367 22.8033 25.3961L25.0233 23.1761H20.5833V31.1161L25.8633 36.3961C26.2503 36.7821 26.6073 36.9021 26.8733 36.9111C26.9987 36.916 27.1238 36.8949 27.2406 36.8492C27.3575 36.8034 27.4637 36.734 27.5524 36.6452C27.6412 36.5565 27.7106 36.4503 27.7564 36.3335C27.8021 36.2166 27.8232 36.0915 27.8183 35.9661Z" fill="#FD682A"/>
<rect x="4.5" y="4.92603" width="48" height="48" rx="24" stroke="#FFF9F5" stroke-width="8"/>
</svg>
