<svg width="129" height="43" viewBox="0 0 129 43" fill="none" xmlns="http://www.w3.org/2000/svg">
<g opacity="0.95" filter="url(#filter0_dd_609_102622)">
<rect x="6.71143" y="1.48337" width="115.386" height="28.7932" rx="4.90662" fill="white"/>
</g>
<path d="M20.0489 12.3004C20.2174 11.7875 20.9509 11.7875 21.1193 12.3004L21.7212 14.1332C21.7965 14.3626 22.0126 14.5179 22.2564 14.5179H24.2041C24.7493 14.5179 24.9759 15.208 24.5349 15.5251L22.9592 16.6578C22.7619 16.7995 22.6794 17.0508 22.7547 17.2802L23.3566 19.113C23.5251 19.6259 22.9317 20.0525 22.4906 19.7354L20.9149 18.6027C20.7177 18.461 20.4506 18.461 20.2533 18.6027L18.6776 19.7354C18.2366 20.0525 17.6432 19.6259 17.8116 19.113L18.4135 17.2802C18.4888 17.0508 18.4063 16.7995 18.2091 16.6578L16.6333 15.5251C16.1923 15.208 16.4189 14.5179 16.9641 14.5179H18.9118C19.1556 14.5179 19.3717 14.3626 19.447 14.1332L20.0489 12.3004Z" fill="#FFC3AA"/>
<path d="M32.1356 12.3004C32.304 11.7875 33.0375 11.7875 33.206 12.3004L33.8079 14.1332C33.8832 14.3626 34.0993 14.5179 34.3431 14.5179H36.2908C36.836 14.5179 37.0626 15.208 36.6216 15.5251L35.0458 16.6578C34.8486 16.7995 34.7661 17.0508 34.8414 17.2802L35.4433 19.113C35.6117 19.6259 35.0183 20.0525 34.5773 19.7354L33.0016 18.6027C32.8043 18.461 32.5372 18.461 32.34 18.6027L30.7643 19.7354C30.3232 20.0525 29.7298 19.6259 29.8983 19.113L30.5002 17.2802C30.5755 17.0508 30.493 16.7995 30.2957 16.6578L28.72 15.5251C28.279 15.208 28.5056 14.5179 29.0508 14.5179H30.9985C31.2423 14.5179 31.4584 14.3626 31.5337 14.1332L32.1356 12.3004Z" fill="#FFC3AA"/>
<path d="M44.2223 12.3004C44.3907 11.7875 45.1242 11.7875 45.2927 12.3004L45.8945 14.1332C45.9699 14.3626 46.1859 14.5179 46.4297 14.5179H48.3775C48.9226 14.5179 49.1493 15.208 48.7083 15.5251L47.1325 16.6578C46.9353 16.7995 46.8527 17.0508 46.9281 17.2802L47.53 19.113C47.6984 19.6259 47.105 20.0525 46.664 19.7354L45.0882 18.6027C44.891 18.461 44.6239 18.461 44.4267 18.6027L42.8509 19.7354C42.4099 20.0525 41.8165 19.6259 41.985 19.113L42.5868 17.2802C42.6622 17.0508 42.5797 16.7995 42.3824 16.6578L40.8067 15.5251C40.3656 15.208 40.5923 14.5179 41.1374 14.5179H43.0852C43.329 14.5179 43.545 14.3626 43.6204 14.1332L44.2223 12.3004Z" fill="#FFC3AA"/>
<path d="M56.3088 12.3004C56.4773 11.7875 57.2107 11.7875 57.3792 12.3004L57.9811 14.1332C58.0564 14.3626 58.2725 14.5179 58.5163 14.5179H60.464C61.0092 14.5179 61.2358 15.208 60.7948 15.5251L59.219 16.6578C59.0218 16.7995 58.9393 17.0508 59.0146 17.2802L59.6165 19.113C59.785 19.6259 59.1916 20.0525 58.7505 19.7354L57.1748 18.6027C56.9775 18.461 56.7105 18.461 56.5132 18.6027L54.9375 19.7354C54.4964 20.0525 53.903 19.6259 54.0715 19.113L54.6734 17.2802C54.7487 17.0508 54.6662 16.7995 54.469 16.6578L52.8932 15.5251C52.4522 15.208 52.6788 14.5179 53.224 14.5179H55.1717C55.4155 14.5179 55.6316 14.3626 55.7069 14.1332L56.3088 12.3004Z" fill="#FFC3AA"/>
<g filter="url(#filter1_dd_609_102622)">
<path d="M70.115 10.7095C70.3583 9.96861 71.4178 9.96861 71.6611 10.7095L72.5305 13.3568C72.6393 13.6882 72.9514 13.9125 73.3035 13.9125H76.1169C76.9044 13.9125 77.2318 14.9094 76.5947 15.3673L74.3186 17.0034C74.0337 17.2082 73.9145 17.5712 74.0233 17.9025L74.8927 20.5498C75.1361 21.2907 74.2789 21.9069 73.6419 21.4489L71.3658 19.8128C71.0809 19.6081 70.6952 19.6081 70.4103 19.8128L68.1342 21.4489C67.4971 21.9069 66.64 21.2907 66.8833 20.5498L67.7527 17.9025C67.8615 17.5712 67.7423 17.2082 67.4574 17.0034L65.1813 15.3673C64.5443 14.9094 64.8717 13.9125 65.6591 13.9125H68.4725C68.8247 13.9125 69.1368 13.6882 69.2456 13.3568L70.115 10.7095Z" fill="#FD682A"/>
</g>
<path d="M110.669 12.2339C110.388 11.9674 110.054 11.7559 109.686 11.6117C109.319 11.4674 108.925 11.3931 108.527 11.3931C108.13 11.3931 107.736 11.4674 107.368 11.6117C107.001 11.7559 106.667 11.9674 106.386 12.2339L105.802 12.7868L105.219 12.2339C104.651 11.6957 103.881 11.3934 103.077 11.3934C102.274 11.3934 101.504 11.6957 100.936 12.2339C100.368 12.772 100.049 13.5019 100.049 14.263C100.049 15.024 100.368 15.7539 100.936 16.2921L101.52 16.845L105.802 20.9032L110.085 16.845L110.669 16.2921C110.95 16.0257 111.173 15.7093 111.326 15.3612C111.478 15.013 111.556 14.6398 111.556 14.263C111.556 13.8861 111.478 13.513 111.326 13.1648C111.173 12.8166 110.95 12.5003 110.669 12.2339Z" fill="#E5343C"/>
<defs>
<filter id="filter0_dd_609_102622" x="0.169266" y="0.393008" width="128.47" height="41.8775" filterUnits="userSpaceOnUse" color-interpolation-filters="sRGB">
<feFlood flood-opacity="0" result="BackgroundImageFix"/>
<feColorMatrix in="SourceAlpha" type="matrix" values="0 0 0 0 0 0 0 0 0 0 0 0 0 0 0 0 0 0 127 0" result="hardAlpha"/>
<feMorphology radius="2.18072" operator="erode" in="SourceAlpha" result="effect1_dropShadow_609_102622"/>
<feOffset dy="2.18072"/>
<feGaussianBlur stdDeviation="1.63554"/>
<feColorMatrix type="matrix" values="0 0 0 0 0.0627451 0 0 0 0 0.0941176 0 0 0 0 0.156863 0 0 0 0.1 0"/>
<feBlend mode="normal" in2="BackgroundImageFix" result="effect1_dropShadow_609_102622"/>
<feColorMatrix in="SourceAlpha" type="matrix" values="0 0 0 0 0 0 0 0 0 0 0 0 0 0 0 0 0 0 127 0" result="hardAlpha"/>
<feMorphology radius="1.63554" operator="erode" in="SourceAlpha" result="effect2_dropShadow_609_102622"/>
<feOffset dy="5.4518"/>
<feGaussianBlur stdDeviation="4.08885"/>
<feColorMatrix type="matrix" values="0 0 0 0 0.0627451 0 0 0 0 0.0941176 0 0 0 0 0.156863 0 0 0 0.1 0"/>
<feBlend mode="normal" in2="effect1_dropShadow_609_102622" result="effect2_dropShadow_609_102622"/>
<feBlend mode="normal" in="SourceGraphic" in2="effect2_dropShadow_609_102622" result="shape"/>
</filter>
<filter id="filter1_dd_609_102622" x="63.5928" y="9.31925" width="14.5904" height="13.9561" filterUnits="userSpaceOnUse" color-interpolation-filters="sRGB">
<feFlood flood-opacity="0" result="BackgroundImageFix"/>
<feColorMatrix in="SourceAlpha" type="matrix" values="0 0 0 0 0 0 0 0 0 0 0 0 0 0 0 0 0 0 127 0" result="hardAlpha"/>
<feMorphology radius="0.417293" operator="erode" in="SourceAlpha" result="effect1_dropShadow_609_102622"/>
<feOffset dy="0.417293"/>
<feGaussianBlur stdDeviation="0.417293"/>
<feColorMatrix type="matrix" values="0 0 0 0 0.0627451 0 0 0 0 0.0941176 0 0 0 0 0.156863 0 0 0 0.1 0"/>
<feBlend mode="normal" in2="BackgroundImageFix" result="effect1_dropShadow_609_102622"/>
<feColorMatrix in="SourceAlpha" type="matrix" values="0 0 0 0 0 0 0 0 0 0 0 0 0 0 0 0 0 0 127 0" result="hardAlpha"/>
<feOffset dy="0.417293"/>
<feGaussianBlur stdDeviation="0.62594"/>
<feColorMatrix type="matrix" values="0 0 0 0 0.0627451 0 0 0 0 0.0941176 0 0 0 0 0.156863 0 0 0 0.1 0"/>
<feBlend mode="normal" in2="effect1_dropShadow_609_102622" result="effect2_dropShadow_609_102622"/>
<feBlend mode="normal" in="SourceGraphic" in2="effect2_dropShadow_609_102622" result="shape"/>
</filter>
</defs>
</svg>
