<svg width="142" height="24" viewBox="0 0 142 24" fill="none" xmlns="http://www.w3.org/2000/svg">
<path d="M36.7822 23.2609C37.8934 23.2609 38.8002 22.3578 38.8002 21.2466V12.6652C38.8002 11.3644 39.1756 10.3572 39.9152 9.67713C40.3872 9.2423 40.9929 8.94127 41.7214 8.78518C42.6022 8.59563 43.2377 7.79659 43.2377 6.88976C43.2377 6.31742 42.9887 5.77481 42.5539 5.40316C42.2045 5.10213 41.766 4.94232 41.3163 4.94232C41.2234 4.94232 41.1267 4.94975 41.0338 4.96462C39.3874 5.21362 38.0235 5.7934 36.9754 6.68164C35.5111 7.92295 34.7678 9.68457 34.7678 11.9145V21.2503C34.7678 22.3615 35.6709 23.2646 36.7822 23.2646V23.2609Z" fill="#FD682A"/>
<path d="M52.031 22.2092C52.3655 22.8782 53.0345 23.2907 53.7815 23.2907C54.5285 23.2907 55.1975 22.8745 55.5319 22.2092L63.0281 7.82638C63.5113 6.86009 63.1173 5.68568 62.1547 5.20254C61.6865 4.9684 61.155 4.93124 60.6607 5.09476C60.1664 5.25829 59.7613 5.60764 59.5309 6.07591L53.7852 16.9615L48.2179 6.07591C47.9837 5.60764 47.5824 5.262 47.0881 5.09476C46.5901 4.92752 46.0623 4.9684 45.594 5.20254C45.1258 5.43668 44.7801 5.83806 44.6129 6.33607C44.4494 6.83036 44.4865 7.36182 44.7207 7.8301L52.0384 22.2129L52.031 22.2092Z" fill="#FD682A"/>
<path d="M66.7372 23.4096C67.9042 23.4096 68.8556 22.4582 68.8556 21.2912V7.13134C68.8556 5.96436 67.9042 5.01294 66.7372 5.01294C65.5702 5.01294 64.6188 5.96436 64.6188 7.13134V21.2912C64.6188 22.4582 65.5702 23.4096 66.7372 23.4096Z" fill="#FD682A"/>
<path d="M79.7153 23.1271H79.7227C82.38 23.1271 84.8961 21.9713 86.6242 19.9532C86.9178 19.615 87.0628 19.1616 87.0293 18.7157C86.9959 18.2622 86.7878 17.8497 86.4421 17.5524C85.8363 17.0321 84.963 17.0135 84.3423 17.4595L84.1491 17.6267L84.045 17.7345C82.9635 18.9981 81.384 19.7228 79.719 19.7228C76.5748 19.7228 74.0179 17.1622 74.0142 14.018C74.0142 10.8739 76.5748 8.31319 79.719 8.31319C81.384 8.31319 82.9598 9.0379 84.045 10.3052C84.6582 11.0151 85.7323 11.0968 86.4458 10.4873C86.7915 10.19 86.9996 9.77749 87.0331 9.32407C87.0665 8.87066 86.9216 8.43211 86.628 8.08648C84.8998 6.06842 82.3837 4.9126 79.7264 4.9126H79.719C74.698 4.9126 70.6136 9.00074 70.6099 14.0217C70.6099 19.0427 74.698 23.1271 79.719 23.1309L79.7153 23.1271Z" fill="#FD682A"/>
<path d="M97.1159 23.0863H97.1233C99.7509 23.0863 102.245 21.9453 103.965 19.9607C104.627 19.1988 104.545 18.0393 103.783 17.3777C103.021 16.7162 101.862 16.7979 101.2 17.5598C100.175 18.7454 98.688 19.4255 97.1196 19.4255H97.1159C94.8265 19.4255 92.7936 17.9724 92.0243 15.8465H104.352C105.359 15.8465 106.18 15.0252 106.18 14.018C106.18 9.01932 102.111 4.94976 97.1122 4.94604C92.1135 4.94604 88.0477 9.01561 88.0439 14.0143C88.0439 19.013 92.1135 23.0825 97.1122 23.0825L97.1159 23.0863ZM97.1159 8.60679C99.4053 8.60679 101.438 10.0599 102.204 12.1858H92.0243C92.7899 10.0599 94.8228 8.60679 97.1122 8.60679H97.1159Z" fill="#FD682A"/>
<path d="M23.5997 23.0863H23.6071C26.2347 23.0863 28.7284 21.9453 30.4492 19.9607C31.1107 19.1988 31.0289 18.0393 30.2671 17.3777C29.5052 16.7162 28.3456 16.7979 27.6841 17.5598C26.6583 18.7454 25.1717 19.4255 23.6034 19.4255H23.5997C21.3103 19.4255 19.2774 17.9724 18.5081 15.8465H30.8357C31.8429 15.8465 32.6642 15.0252 32.6642 14.018C32.6642 9.01932 28.5946 4.94976 23.596 4.94604C18.5973 4.94604 14.5314 9.01561 14.5277 14.0143C14.5277 19.013 18.5973 23.0825 23.596 23.0825L23.5997 23.0863ZM23.5997 8.60679C25.889 8.60679 27.922 10.0599 28.6913 12.1858H18.5118C19.2774 10.0599 21.3103 8.60679 23.5997 8.60679Z" fill="#FD682A"/>
<path d="M4.80543 15.4303L7.42927 15.9878C8.79323 16.2665 9.42131 16.9652 9.42131 17.8758C9.42131 18.9238 8.44016 19.8306 6.7603 19.8306C5.22911 19.8306 3.97665 19.1505 3.45634 18.2065C3.06611 17.4967 2.2299 17.1659 1.44943 17.3815L1.36767 17.4038C0.208124 17.7234 -0.293603 19.0762 0.3605 20.0871C1.34537 21.6108 3.50465 23.0454 6.79375 23.0454C11.1235 23.0454 13.3311 20.18 13.3311 17.597C13.3311 15.0141 11.6549 13.1261 8.44016 12.4274L5.7457 11.9033C4.69765 11.6952 3.5827 11.1155 3.5827 10.1231C3.5827 8.88184 5.047 8.16827 6.48157 8.16827C7.91613 8.16827 8.84526 8.79264 9.29123 9.50249C9.71492 10.1752 10.5214 10.4948 11.2833 10.2792C12.4391 9.94847 12.952 8.57708 12.2681 7.5885C11.3465 6.24684 9.33212 4.99438 6.58934 4.99438C3.06239 4.99438 0 7.51045 0 10.4799C0 12.8213 1.79878 14.7762 4.80171 15.4414L4.80543 15.4303Z" fill="#FD682A"/>
<path d="M115.341 4.07269C116.475 4.07269 117.326 4.3663 117.88 4.94235C118.445 5.53327 118.72 6.32489 118.72 7.36179C118.72 7.89696 118.605 8.42471 118.382 8.92643C118.151 9.43931 117.757 9.98935 117.203 10.5617C116.62 11.1638 115.817 11.8996 114.814 12.7433C114.803 12.7507 114.795 12.7619 114.784 12.7693L108.414 19.1394C108.061 19.4478 107.834 19.7303 107.708 20.009C107.581 20.2878 107.515 20.5516 107.515 20.7969V21.7595C107.515 22.0791 107.626 22.3578 107.842 22.5697C108.053 22.7852 108.336 22.8967 108.655 22.8967H121.243C121.708 22.8967 122.143 22.7146 122.473 22.3876C122.8 22.0605 122.983 21.622 122.983 21.1574V21.1203C122.983 20.1651 122.202 19.3846 121.247 19.3846H113.61L118.627 14.2893C119.485 13.5498 120.21 12.825 120.794 12.1189C121.392 11.3942 121.856 10.636 122.172 9.86671C122.496 9.08253 122.659 8.21287 122.659 7.2726C122.659 6.08332 122.399 4.96836 121.886 3.96863C121.366 2.95031 120.552 2.12153 119.463 1.50831C118.385 0.898805 116.999 0.594055 115.345 0.594055C114.126 0.594055 113.037 0.798462 112.108 1.20356C111.183 1.60866 110.395 2.15498 109.763 2.82767C109.135 3.49663 108.655 4.2548 108.332 5.07986C108.013 5.89749 107.842 6.72998 107.819 7.54761C107.819 7.83007 107.931 8.0865 108.143 8.27976C108.343 8.46559 108.607 8.56221 108.897 8.56221H110.462C110.685 8.56221 110.915 8.4916 111.153 8.35038C111.354 8.23145 111.606 7.98987 111.684 7.4993C111.796 6.83033 112.004 6.22454 112.298 5.70051C112.58 5.19507 112.97 4.80856 113.483 4.51495C113.996 4.22507 114.62 4.07641 115.341 4.07641V4.07269Z" fill="#FD682A"/>
<path d="M135.098 0.590332C134.251 0.590332 133.79 0.987997 133.556 1.32248L124.149 14.5866C124.001 14.8096 123.889 15.0363 123.826 15.2593C123.759 15.4898 123.729 15.6496 123.729 15.7834V17.0358C123.729 17.3703 123.848 17.6639 124.071 17.8832C124.294 18.1062 124.588 18.2251 124.922 18.2251H134.6V21.3953C134.6 22.4842 135.485 23.3687 136.574 23.3687C137.663 23.3687 138.547 22.4842 138.547 21.3953V18.2251H140.168C140.662 18.2251 141.123 18.0318 141.472 17.6825C141.818 17.3331 142.007 16.8649 142 16.3743C141.989 15.3745 141.167 14.5606 140.168 14.5606H138.547V1.77961C138.547 1.44884 138.428 1.15524 138.205 0.928534C137.982 0.705545 137.689 0.590332 137.358 0.590332H135.102H135.098ZM134.63 14.6238H128.457L134.63 5.83803V14.6238Z" fill="#FD682A"/>
</svg>
