<svg width="142" height="24" viewBox="0 0 142 24" fill="none" xmlns="http://www.w3.org/2000/svg">
<path d="M36.7822 22.9856C37.8934 22.9856 38.8002 22.0825 38.8002 20.9712V12.3899C38.8002 11.0891 39.1756 10.0819 39.9152 9.4018C40.3872 8.96697 40.9929 8.66594 41.7214 8.50985C42.6022 8.3203 43.2377 7.52126 43.2377 6.61443C43.2377 6.04209 42.9887 5.49948 42.5539 5.12783C42.2045 4.8268 41.766 4.66699 41.3163 4.66699C41.2234 4.66699 41.1267 4.67442 41.0338 4.68929C39.3874 4.9383 38.0235 5.51807 36.9754 6.40631C35.5111 7.64762 34.7678 9.40924 34.7678 11.6391V20.975C34.7678 22.0862 35.6709 22.9893 36.7822 22.9893V22.9856Z" fill="white"/>
<path d="M52.031 21.9335C52.3655 22.6025 53.0345 23.015 53.7815 23.015C54.5285 23.015 55.1975 22.5988 55.5319 21.9335L63.0281 7.55068C63.5113 6.5844 63.1173 5.40998 62.1547 4.92684C61.6865 4.6927 61.155 4.65554 60.6607 4.81906C60.1664 4.98259 59.7613 5.33194 59.5309 5.80022L53.7852 16.6858L48.2179 5.80022C47.9837 5.33194 47.5824 4.98631 47.0881 4.81906C46.5901 4.65182 46.0623 4.6927 45.594 4.92684C45.1258 5.16098 44.7801 5.56236 44.6129 6.06037C44.4494 6.55467 44.4865 7.08613 44.7207 7.5544L52.0384 21.9372L52.031 21.9335Z" fill="white"/>
<path d="M66.7372 23.1339C67.9042 23.1339 68.8556 22.1825 68.8556 21.0155V6.85571C68.8556 5.68873 67.9042 4.7373 66.7372 4.7373C65.5702 4.7373 64.6188 5.68873 64.6188 6.85571V21.0155C64.6188 22.1825 65.5702 23.1339 66.7372 23.1339Z" fill="white"/>
<path d="M79.7153 22.8517H79.7227C82.38 22.8517 84.8961 21.6959 86.6242 19.6779C86.9178 19.3397 87.0628 18.8862 87.0293 18.4403C86.9959 17.9869 86.7878 17.5743 86.4421 17.277C85.8363 16.7567 84.963 16.7381 84.3423 17.1841L84.1491 17.3513L84.045 17.4591C82.9635 18.7227 81.384 19.4474 79.719 19.4474C76.5748 19.4474 74.0179 16.8868 74.0142 13.7426C74.0142 10.5985 76.5748 8.0378 79.719 8.0378C81.384 8.0378 82.9598 8.76251 84.045 10.0298C84.6582 10.7397 85.7323 10.8215 86.4458 10.2119C86.7915 9.91463 86.9996 9.5021 87.0331 9.04868C87.0665 8.59527 86.9216 8.15672 86.628 7.81109C84.8998 5.79303 82.3837 4.63721 79.7264 4.63721H79.719C74.698 4.63721 70.6136 8.72535 70.6099 13.7463C70.6099 18.7673 74.698 22.8517 79.719 22.8555L79.7153 22.8517Z" fill="white"/>
<path d="M97.1159 22.8111H97.1233C99.7509 22.8111 102.245 21.6701 103.965 19.6855C104.627 18.9237 104.545 17.7641 103.783 17.1026C103.021 16.441 101.862 16.5228 101.2 17.2847C100.175 18.4702 98.688 19.1504 97.1196 19.1504H97.1159C94.8265 19.1504 92.7936 17.6972 92.0243 15.5714H104.352C105.359 15.5714 106.18 14.75 106.18 13.7429C106.18 8.74418 102.111 4.67461 97.1122 4.6709C92.1135 4.6709 88.0477 8.74046 88.0439 13.7391C88.0439 18.7378 92.1135 22.8074 97.1122 22.8074L97.1159 22.8111ZM97.1159 8.33165C99.4053 8.33165 101.438 9.78479 102.204 11.9106H92.0243C92.7899 9.78479 94.8228 8.33165 97.1122 8.33165H97.1159Z" fill="white"/>
<path d="M23.5997 22.8111H23.6071C26.2347 22.8111 28.7284 21.6701 30.4492 19.6855C31.1107 18.9237 31.0289 17.7641 30.2671 17.1026C29.5052 16.441 28.3456 16.5228 27.6841 17.2847C26.6583 18.4702 25.1717 19.1504 23.6034 19.1504H23.5997C21.3103 19.1504 19.2774 17.6972 18.5081 15.5714H30.8357C31.8429 15.5714 32.6642 14.75 32.6642 13.7429C32.6642 8.74418 28.5946 4.67461 23.596 4.6709C18.5973 4.6709 14.5314 8.74046 14.5277 13.7391C14.5277 18.7378 18.5973 22.8074 23.596 22.8074L23.5997 22.8111ZM23.5997 8.33165C25.889 8.33165 27.922 9.78479 28.6913 11.9106H18.5118C19.2774 9.78479 21.3103 8.33165 23.5997 8.33165Z" fill="white"/>
<path d="M4.80543 15.1547L7.42927 15.7121C8.79323 15.9909 9.42131 16.6896 9.42131 17.6001C9.42131 18.6482 8.44016 19.555 6.7603 19.555C5.22911 19.555 3.97665 18.8749 3.45634 17.9309C3.06611 17.221 2.2299 16.8903 1.44943 17.1058L1.36767 17.1281C0.208124 17.4477 -0.293603 18.8005 0.3605 19.8114C1.34537 21.3352 3.50465 22.7698 6.79375 22.7698C11.1235 22.7698 13.3311 19.9043 13.3311 17.3214C13.3311 14.7384 11.6549 12.8504 8.44016 12.1517L5.7457 11.6277C4.69765 11.4196 3.5827 10.8398 3.5827 9.84751C3.5827 8.6062 5.047 7.89263 6.48157 7.89263C7.91613 7.89263 8.84526 8.51701 9.29123 9.22686C9.71492 9.89954 10.5214 10.2192 11.2833 10.0036C12.4391 9.67284 12.952 8.30145 12.2681 7.31286C11.3465 5.97121 9.33212 4.71875 6.58934 4.71875C3.06239 4.71875 0 7.23481 0 10.2043C0 12.5457 1.79878 14.5006 4.80171 15.1658L4.80543 15.1547Z" fill="white"/>
<path d="M115.341 3.79749C116.475 3.79749 117.326 4.09109 117.88 4.66714C118.445 5.25807 118.72 6.04968 118.72 7.08658C118.72 7.62176 118.605 8.1495 118.382 8.65123C118.151 9.1641 117.757 9.71414 117.203 10.2865C116.62 10.8886 115.817 11.6244 114.814 12.4681C114.803 12.4755 114.795 12.4866 114.784 12.4941L108.414 18.8642C108.061 19.1726 107.834 19.4551 107.708 19.7338C107.581 20.0125 107.515 20.2764 107.515 20.5217V21.4843C107.515 21.8039 107.626 22.0826 107.842 22.2945C108.053 22.51 108.336 22.6215 108.655 22.6215H121.243C121.708 22.6215 122.143 22.4394 122.473 22.1124C122.8 21.7853 122.983 21.3468 122.983 20.8822V20.845C122.983 19.8899 122.202 19.1094 121.247 19.1094H113.61L118.627 14.0141C119.485 13.2745 120.21 12.5498 120.794 11.8437C121.392 11.119 121.856 10.3608 122.172 9.5915C122.496 8.80732 122.659 7.93766 122.659 6.99739C122.659 5.80811 122.399 4.69316 121.886 3.69342C121.366 2.6751 120.552 1.84632 119.463 1.2331C118.385 0.623597 116.999 0.318848 115.345 0.318848C114.126 0.318848 113.037 0.523255 112.108 0.928352C111.183 1.33345 110.395 1.87977 109.763 2.55246C109.135 3.22143 108.655 3.97959 108.332 4.80465C108.013 5.62228 107.842 6.45478 107.819 7.27241C107.819 7.55486 107.931 7.8113 108.143 8.00455C108.343 8.19038 108.607 8.28701 108.897 8.28701H110.462C110.685 8.28701 110.915 8.2164 111.153 8.07517C111.354 7.95624 111.606 7.71467 111.684 7.22409C111.796 6.55512 112.004 5.94933 112.298 5.42531C112.58 4.91986 112.97 4.53335 113.483 4.23974C113.996 3.94986 114.62 3.8012 115.341 3.8012V3.79749Z" fill="white"/>
<path d="M135.098 0.314941C134.251 0.314941 133.79 0.712607 133.556 1.04709L124.149 14.3113C124.001 14.5342 123.889 14.761 123.826 14.9839C123.759 15.2144 123.729 15.3742 123.729 15.508V16.7604C123.729 17.0949 123.848 17.3885 124.071 17.6078C124.294 17.8308 124.588 17.9497 124.922 17.9497H134.6V21.1199C134.6 22.2088 135.485 23.0933 136.574 23.0933C137.663 23.0933 138.547 22.2088 138.547 21.1199V17.9497H140.168C140.662 17.9497 141.123 17.7564 141.472 17.4071C141.818 17.0577 142.007 16.5895 142 16.0989C141.989 15.0992 141.167 14.2852 140.168 14.2852H138.547V1.50422C138.547 1.17345 138.428 0.87985 138.205 0.653144C137.982 0.430154 137.689 0.314941 137.358 0.314941H135.102H135.098ZM134.63 14.3484H128.457L134.63 5.56263V14.3484Z" fill="white"/>
</svg>
