<svg width="11" height="11" viewBox="0 0 11 11" fill="none" xmlns="http://www.w3.org/2000/svg">
<path d="M5.89326 1.98278C5.72091 1.81043 5.44147 1.81043 5.26912 1.98278L2.1798 5.0721C2.00745 5.24445 2.00745 5.52389 2.1798 5.69624C2.35215 5.86859 2.63159 5.86859 2.80394 5.69624L2.9332 5.56698V8.47349C2.9332 8.71723 3.13079 8.91482 3.37453 8.91482H4.2572C4.50094 8.91482 4.69853 8.71723 4.69853 8.47349V7.59083C4.69853 7.34709 4.89612 7.1495 5.13986 7.1495H6.02252C6.26626 7.1495 6.46385 7.34709 6.46385 7.59083V8.47349C6.46385 8.71723 6.66145 8.91482 6.90519 8.91482H7.78785C8.03159 8.91482 8.22918 8.71723 8.22918 8.47349V5.56698L8.35845 5.69624C8.5308 5.86859 8.81023 5.86859 8.98258 5.69624C9.15493 5.52389 9.15493 5.24445 8.98258 5.0721L5.89326 1.98278Z" fill="white"/>
</svg>
