<svg width="11" height="11" viewBox="0 0 11 11" fill="none" xmlns="http://www.w3.org/2000/svg">
<path d="M3.96823 2.63811H3.18364C2.75032 2.63811 2.39905 2.98938 2.39905 3.4227V8.13023C2.39905 8.56355 2.75032 8.91482 3.18364 8.91482H7.10659C7.5399 8.91482 7.89118 8.56355 7.89118 8.13023V3.4227C7.89118 2.98938 7.5399 2.63811 7.10659 2.63811H6.322M3.96823 2.63811C3.96823 3.07142 4.3195 3.4227 4.75282 3.4227H5.53741C5.97072 3.4227 6.322 3.07142 6.322 2.63811M3.96823 2.63811C3.96823 2.20479 4.3195 1.85352 4.75282 1.85352H5.53741C5.97072 1.85352 6.322 2.20479 6.322 2.63811M5.14511 5.38417H6.322M5.14511 6.95335H6.322M3.96823 5.38417H3.97215M3.96823 6.95335H3.97215" stroke="#141518" stroke-width="0.701928" stroke-linecap="round"/>
</svg>
